<svg width="48" height="39" viewBox="0 0 48 39" fill="none" xmlns="http://www.w3.org/2000/svg">
<path d="M47.8977 34.4541C47.6427 33.0554 46.722 31.8666 45.4283 31.2704L39.8577 28.9961C38.9277 28.5704 38.3351 27.6404 38.3351 26.6185V25.7991C38.3351 25.4092 38.3971 25.0248 38.5245 24.6592C38.5245 24.6592 42.0289 19.9829 42.0289 15.6742C42.0289 10.2892 38.5845 6.82422 34.3302 6.82422C32.2771 6.82422 30.4152 7.64178 29.0333 9.08921C29.1008 9.69677 29.1476 10.3136 29.1476 10.9529C29.1476 13.7036 28.1895 16.4805 27.1339 18.7116C28.0976 21.9235 30.1433 24.6592 30.1433 24.6592C30.267 25.0248 30.3326 25.4092 30.3326 25.7991V26.6185C30.3326 26.7141 30.3007 26.8022 30.2913 26.8979L31.6713 27.4604C34.09 28.5667 35.7513 30.7041 36.2126 33.2185L36.2352 33.3498L36.6064 38.146H45.7095C46.3488 38.146 46.9582 37.8817 47.3895 37.411C47.8245 36.9441 48.042 36.316 47.9932 35.6785L47.8977 34.4541Z" fill="white"/>
<path d="M30.1854 29.5836L23.4467 26.8293C22.3217 26.3117 21.6036 25.1867 21.6036 23.953V22.9593C21.6036 22.4906 21.6786 22.0236 21.8343 21.5793C21.8343 21.5793 26.0718 15.9243 26.0718 10.708C26.0718 4.1905 21.9038 0 16.7606 0C11.6193 0 7.44933 4.19062 7.44933 10.708C7.44933 15.9243 11.6906 21.5793 11.6906 21.5793C11.8425 22.0236 11.9212 22.4906 11.9212 22.9593V23.953C11.9212 25.1867 11.1975 26.3117 10.0743 26.8293L3.33563 29.5836C1.76999 30.3017 0.654357 31.7417 0.346919 33.4367L0 37.901H16.7606H33.5212L33.1781 33.4367C32.8667 31.7418 31.751 30.3018 30.1854 29.5836Z" fill="white"/>
</svg>
