<svg width="120" height="120" viewBox="0 0 120 120" fill="none" xmlns="http://www.w3.org/2000/svg">
<circle cx="60" cy="60" r="60" fill="url(#paint0_linear_1143_1868)"/>
<path d="M91.0695 65.1551C90.4763 64.2003 89.6366 63.4215 88.6387 62.9047C88.4278 62.7934 88.1973 62.6929 87.9514 62.6014H87.9164C87.6257 62.6014 87.3476 62.5135 87.1134 62.351C86.6754 62.255 86.2259 62.2065 85.7746 62.2065C84.3372 62.2065 82.9886 62.682 81.8732 63.5812C81.6229 63.783 81.3088 63.8943 80.9877 63.8943C80.5578 63.8943 80.1568 63.7032 79.8875 63.3693C79.6507 63.0759 79.542 62.708 79.5825 62.3329C79.6219 61.9569 79.8059 61.6204 80.0993 61.3827C81.6983 60.0924 83.7127 59.3818 85.7719 59.3818C86.4288 59.3818 87.0856 59.4535 87.7298 59.5972C88.9358 58.6424 89.6985 57.2884 89.8887 55.7523C89.9192 55.51 89.9345 55.2659 89.9345 55.0245C89.9345 53.6176 89.4193 52.2538 88.4836 51.1878C87.5404 50.1146 86.2403 49.4255 84.8217 49.2495C84.6494 49.228 84.4754 49.2138 84.3022 49.2083C84.1747 49.3528 84.0419 49.4954 83.9047 49.6336C83.3483 50.1935 82.6628 50.7014 81.8078 51.1886C81.1636 51.5539 80.433 51.8984 79.6372 52.2125C78.2582 52.7554 77.1778 53.0146 77.167 53.0165C77.0629 53.0416 76.9517 53.0543 76.8404 53.0543C76.1863 53.0543 75.6228 52.611 75.4677 51.9756C75.3788 51.6079 75.4389 51.2291 75.6354 50.9079C75.8265 50.593 76.1253 50.3705 76.4807 50.2771L76.5084 50.2709L76.765 50.9376L76.5883 50.2494L76.8423 50.1803C77.0702 50.1156 77.3932 50.0179 77.7754 49.8888C78.4663 49.6528 79.4847 49.2606 80.4125 48.733C81.0245 48.3857 81.5387 48.0097 81.8976 47.6474C82.1031 47.4391 82.3041 47.2095 82.4961 46.9627L82.5876 46.8496C83.4696 45.6841 83.9801 44.2189 83.9792 42.7769C83.9774 41.2874 83.4516 39.9118 82.4583 38.7973C81.2783 37.4766 79.5852 36.7183 77.812 36.7183C76.2822 36.7183 74.8105 37.28 73.6693 38.2993C73.41 38.5308 73.0761 38.6582 72.7289 38.6582C72.326 38.6582 71.9419 38.486 71.6745 38.1855C71.4243 37.9046 71.2978 37.5421 71.3183 37.1661C71.3399 36.7892 71.5068 36.4437 71.7876 36.1925C72.3995 35.6461 73.077 35.1883 73.8064 34.8277C73.6269 33.4791 73.0096 32.2247 72.0388 31.2538C70.8624 30.0774 69.2994 29.4304 67.6375 29.4297C65.9748 29.4304 64.4117 30.0774 63.2355 31.2538C62.06 32.4293 61.4131 33.9933 61.4122 35.655V45.8034H67.2123C67.991 45.8034 68.6245 46.4377 68.6245 47.2156C68.6245 47.9944 67.991 48.628 67.2123 48.628H61.4122V55.5955C63.0946 55.6744 64.5177 55.8998 65.7479 56.2801C67.2149 56.7314 68.42 57.426 69.3271 58.3422C69.8629 58.8832 70.315 59.522 70.6721 60.2409C71.1361 61.1803 71.3846 62.1368 71.5498 62.8654C71.6404 63.2693 71.7194 63.6684 71.7956 64.0579C71.9266 64.7174 72.0495 65.3402 72.2129 65.8919C72.3628 66.3998 72.5331 66.8071 72.736 67.1382C72.9864 67.5509 73.2888 67.8614 73.6853 68.1181C74.2498 68.4788 74.9944 68.7157 75.9609 68.8413C76.3324 68.8879 76.6653 69.0782 76.8967 69.3761C77.1282 69.6758 77.2287 70.0473 77.1812 70.4206C77.0897 71.1241 76.4875 71.6535 75.7814 71.6535L75.5983 71.6408C74.4165 71.4891 73.434 71.1967 72.5933 70.7481C71.7929 70.3227 71.1244 69.7448 70.6076 69.0333C70.3061 68.6223 70.0549 68.1674 69.8386 67.6461C69.6151 67.1077 69.4384 66.5272 69.2644 65.7636C69.1755 65.3688 69.0984 64.9739 69.0211 64.5827C68.9421 64.1843 68.8641 63.7887 68.7744 63.4028C68.5159 62.274 68.2099 61.4978 67.781 60.8859C67.4903 60.4687 67.1395 60.1187 66.707 59.8163C66.1201 59.4072 65.396 59.094 64.4934 58.8589C63.6221 58.6319 62.5885 58.4847 61.4121 58.4228V84.3411C61.413 86.0029 62.06 87.5669 63.2345 88.7433C64.4117 89.9188 65.9748 90.5656 67.6375 90.5665C69.2993 90.5658 70.8623 89.9188 72.0388 88.7433C73.2143 87.566 73.862 86.0029 73.862 84.3411C73.8629 83.4411 73.6161 82.4532 73.1836 81.6304C72.6919 80.689 72.0073 79.9946 71.1504 79.5639C70.4881 79.2337 69.7551 79.0722 68.909 79.0704C68.131 79.0704 67.4975 78.4377 67.4975 77.6598C67.4975 76.88 68.131 76.2466 68.9098 76.2466C69.8744 76.2466 70.7896 76.4001 71.6304 76.7033C72.4173 76.986 73.1424 77.4013 73.7848 77.9362C74.9064 78.8738 75.758 80.1597 76.2479 81.6545C76.535 82.533 76.6858 83.4616 76.6858 84.341C76.6867 85.0426 76.6059 85.7389 76.4463 86.4191C77.0978 86.6416 77.7878 86.7582 78.4697 86.7582C79.9932 86.7574 81.4613 86.1982 82.6008 85.1844C83.9271 84.0044 84.6879 82.3085 84.6888 80.5311C84.6888 79.7782 84.5542 79.0407 84.2913 78.3381C84.0239 77.6265 83.6273 76.9723 83.1149 76.3955C82.5981 75.8131 82.6509 74.9193 83.2316 74.4017C83.4918 74.1711 83.8247 74.0455 84.1701 74.0455C84.5738 74.0455 84.9588 74.2177 85.2271 74.5201L85.3249 74.6322L85.3896 74.6431C85.4336 74.6493 85.4613 74.652 85.5268 74.6547C85.5842 74.6556 85.6641 74.6565 85.7744 74.6565C87.4362 74.6556 89.0002 74.0086 90.1767 72.8332C91.3521 71.656 91.9991 70.0929 92 68.4311C91.9992 67.2691 91.677 66.1358 91.0695 65.1551Z" fill="white"/>
<path d="M52.3632 29.4297C50.7005 29.4304 49.1374 30.0774 47.9611 31.2538C46.9902 32.2247 46.3728 33.4801 46.1934 34.8268C46.9212 35.1876 47.5986 35.6442 48.2114 36.1916L48.3111 36.2895L48.4143 36.4078L48.6216 36.6357C48.8091 36.8385 49.0818 37.1292 49.4156 37.463C50.0194 38.0696 50.9446 38.9436 51.9253 39.6676C52.5758 40.1486 53.1851 40.5128 53.6893 40.722C54.0393 40.8673 54.2833 40.9166 54.4268 40.9328C54.8028 40.975 55.1393 41.1607 55.3743 41.455C55.6103 41.7494 55.7171 42.1181 55.6748 42.4932C55.595 43.2092 54.9921 43.7495 54.2725 43.7495L54.1163 43.7406C53.6336 43.6867 53.1401 43.5521 52.6071 43.3305C52.1638 43.1465 51.7116 42.9097 51.2225 42.6055C50.4553 42.1272 49.6271 41.4955 48.7612 40.7292C47.4934 39.6058 46.5234 38.5308 46.2739 38.2491C45.1389 37.2612 43.6897 36.7175 42.1868 36.7175C40.4145 36.7183 38.7214 37.4757 37.5424 38.7965C36.5222 39.937 35.9614 41.4093 35.9605 42.9392C35.9605 43.9782 36.2198 44.9959 36.7133 45.9066H36.7303C37.196 45.9066 37.6644 45.9416 38.1212 46.0125C38.8919 46.1327 39.4204 46.855 39.3019 47.624C39.1933 48.3176 38.6074 48.821 37.9075 48.821C37.8358 48.821 37.7622 48.8155 37.6887 48.8047C37.3764 48.7555 37.0533 48.7312 36.7303 48.7312C36.6558 48.7312 36.5823 48.7321 36.5068 48.7339C34.8863 48.7922 33.3716 49.4679 32.2446 50.637C31.1213 51.8035 30.503 53.336 30.503 54.9511C30.503 55.0256 30.5039 55.101 30.5058 55.1764C30.5649 56.8445 31.2963 58.4184 32.5246 59.5444C33.0881 59.4368 33.6588 59.382 34.225 59.382C36.287 59.382 38.3014 60.0927 39.8995 61.3829L40.0395 61.5104L40.1464 61.6307C40.1949 61.6835 40.2693 61.7615 40.3672 61.8604C40.6444 62.1403 40.9442 62.4149 41.2573 62.6778C41.9509 63.2593 43.05 64.0605 44.3539 64.5783C45.2431 64.9309 46.1179 65.1095 46.9534 65.1095C47.7322 65.1095 48.3657 65.7429 48.3657 66.5218C48.3657 67.3007 47.7322 67.9342 46.9534 67.9342C45.7554 67.9332 44.5307 67.6874 43.3122 67.2029C42.3645 66.8262 41.4179 66.3056 40.4974 65.655C39.2188 64.7498 38.3412 63.8408 38.0469 63.5185C36.946 62.6608 35.626 62.2068 34.2254 62.2068C33.216 62.2068 32.2523 62.441 31.3613 62.9049C30.3644 63.4218 29.5236 64.2005 28.9305 65.1553C28.323 66.1361 28.001 67.2693 28 68.4322C28.001 70.0931 28.6479 71.6562 29.8233 72.8333C30.9996 74.0088 32.5635 74.6557 34.2254 74.6566C34.4309 74.6566 34.5296 74.6557 34.6121 74.6468L34.6678 74.6396L34.7728 74.5202C35.041 74.2178 35.426 74.0456 35.8298 74.0456C36.1753 74.0456 36.5082 74.1712 36.7674 74.4018C37.0492 74.6521 37.217 74.9976 37.2394 75.3753C37.2609 75.7513 37.1353 76.1138 36.8842 76.3956C36.3727 76.9725 35.9762 77.6276 35.7087 78.3391C35.4449 79.0417 35.3111 79.7783 35.3111 80.5312C35.3119 82.3079 36.0729 84.0037 37.3982 85.1845C38.5387 86.1984 40.0067 86.7575 41.5302 86.7584C42.2122 86.7584 42.9022 86.6417 43.5536 86.4192C43.3938 85.7409 43.3139 85.0446 43.3139 84.3411C43.3139 83.2167 43.5527 82.0566 44.0031 80.9826C44.5092 79.7748 45.2736 78.7222 46.2141 77.9381C46.4679 77.7263 46.7892 77.6097 47.1184 77.6097C47.5394 77.6097 47.9341 77.7946 48.2033 78.1176C48.7004 78.7152 48.6206 79.6071 48.0239 80.1061C47.4289 80.6013 46.9391 81.2816 46.6062 82.0756C46.3038 82.7961 46.1369 83.601 46.1378 84.3414C46.1378 86.0031 46.7856 87.5661 47.9611 88.7435C49.1374 89.919 50.7006 90.5659 52.3632 90.5668C54.025 90.566 55.589 89.919 56.7653 88.7435C57.9398 87.5671 58.5869 86.0031 58.5877 84.3414V73.0238H53.317C52.5391 73.0238 51.9056 72.3912 51.9056 71.6123C51.9056 70.8336 52.5391 70.1999 53.317 70.1999H58.5877V61.6164C57.9882 61.3402 57.3332 61.1947 56.671 61.1939C56.2062 61.1939 55.7415 61.2657 55.2901 61.4057C54.1092 61.8139 52.9186 62.0257 51.7727 62.0257C49.5914 62.0257 47.6039 61.2504 46.1647 59.8434C44.7962 58.5083 44.0102 56.667 44.0094 54.7908C44.0086 53.1228 44.6033 51.5283 45.7322 50.1796C46.0013 49.8565 46.3962 49.6726 46.8161 49.6726C47.1463 49.6726 47.4676 49.7894 47.7206 50.001C48.3182 50.5009 48.3981 51.3919 47.9001 51.9895C47.1948 52.8365 46.8359 53.7795 46.8351 54.7918C46.8351 55.9089 47.3097 57.0143 48.1378 57.8228C49.0638 58.7228 50.3209 59.1993 51.7737 59.201C52.6082 59.201 53.4937 59.0404 54.4045 58.7247C55.1698 58.4842 55.9182 58.3702 56.672 58.3702C57.3225 58.3702 57.9632 58.4545 58.5877 58.6242V35.6551C58.5867 33.9933 57.9398 32.4293 56.7653 31.2539C55.589 30.0774 54.025 29.4306 52.3632 29.4297Z" fill="white"/>
<defs>
<linearGradient id="paint0_linear_1143_1868" x1="52.047" y1="2.43958" x2="52.047" y2="148.755" gradientUnits="userSpaceOnUse">
<stop stop-color="#F78422"/>
<stop offset="0.961538" stop-color="#E1291C"/>
</linearGradient>
</defs>
</svg>
