<svg width="120" height="120" viewBox="0 0 120 120" fill="none" xmlns="http://www.w3.org/2000/svg">
<circle cx="60" cy="60" r="60" fill="url(#paint0_linear_1143_1857)"/>
<path fill-rule="evenodd" clip-rule="evenodd" d="M38.1815 32.1373C39.0977 31.2397 40.384 30.6545 42.8131 30.3345C45.3136 30.0052 48.6276 30 53.3793 30H66.6207C71.3724 30 74.6865 30.0052 77.187 30.3345C79.6161 30.6545 80.9022 31.2397 81.8184 32.1373C82.7346 33.0349 83.3319 34.2951 83.6586 36.6749C83.9946 39.1247 84 42.3715 84 47.0269V70.5402H46.0369C43.3292 70.5393 41.4815 70.5387 39.897 70.9548C38.4802 71.3265 37.166 71.934 36 72.7323V47.0269C36 42.3715 36.0053 39.1247 36.3415 36.675C36.668 34.2951 37.2654 33.0349 38.1815 32.1373ZM46.7586 41.3513C45.3874 41.3513 44.2759 42.4403 44.2759 43.7837C44.2759 45.1271 45.3874 46.2161 46.7586 46.2161H73.2414C74.6127 46.2161 75.7242 45.1271 75.7242 43.7837C75.7242 42.4403 74.6127 41.3513 73.2414 41.3513H46.7586ZM44.2759 55.135C44.2759 53.7916 45.3874 52.7026 46.7586 52.7026H63.3102C64.6815 52.7026 65.793 53.7916 65.793 55.135C65.793 56.4784 64.6815 57.5674 63.3102 57.5674H46.7586C45.3874 57.5674 44.2759 56.4784 44.2759 55.135Z" fill="white"/>
<path d="M46.4202 75.4062C43.1819 75.4062 42.0497 75.4273 41.1821 75.655C38.801 76.2801 36.9026 78.0141 36.0886 80.2683C36.1389 81.4155 36.2178 82.4247 36.3415 83.3259C36.668 85.7058 37.2654 86.9661 38.1815 87.8637C39.0977 88.7613 40.3841 89.3463 42.8131 89.6664C45.3136 89.9958 48.6276 90.0009 53.3793 90.0009H66.6207C71.3724 90.0009 74.6865 89.9958 77.187 89.6664C79.6161 89.3463 80.9022 88.7613 81.8184 87.8637C82.4682 87.2268 82.9578 86.4078 83.304 85.1361H46.7586C45.3874 85.1361 44.2759 84.0471 44.2759 82.7037C44.2759 81.3603 45.3874 80.2713 46.7586 80.2713H83.9112C83.9727 78.8733 83.9916 77.2701 83.9973 75.4062H46.4202Z" fill="white"/>
<defs>
<linearGradient id="paint0_linear_1143_1857" x1="52.047" y1="2.43958" x2="52.047" y2="148.755" gradientUnits="userSpaceOnUse">
<stop stop-color="#F78422"/>
<stop offset="0.961538" stop-color="#E1291C"/>
</linearGradient>
</defs>
</svg>
