<svg width="48" height="30" viewBox="0 0 48 30" fill="none" xmlns="http://www.w3.org/2000/svg">
<path d="M13.8347 21.0147C13.8274 20.94 13.804 20.8711 13.804 20.7964V20.1563C13.804 19.8516 13.8538 19.5513 13.9534 19.2657C13.9534 19.2657 15.5487 17.13 16.3031 14.6207C15.4769 12.8775 14.7269 10.7081 14.7269 8.55768C14.7269 8.05818 14.7635 7.57481 14.8148 7.09865C13.7382 5.97075 12.2836 5.33203 10.6766 5.33203C7.3587 5.33203 4.6664 8.03905 4.6664 12.2461C4.6664 15.6123 7.40567 19.2656 7.40567 19.2656C7.50233 19.5512 7.5522 19.8515 7.5522 20.1562V20.7963C7.5522 21.5947 7.08636 22.3213 6.3598 22.6538L2.01066 24.4306C0.999846 24.8965 0.280598 25.8252 0.0799735 26.9179L0.00525491 27.8744C-0.0328075 28.3725 0.137067 28.8632 0.47691 29.228C0.815253 29.5957 1.29141 29.8022 1.79091 29.8022H8.89976L9.19123 26.0566L9.21026 25.9556C9.56623 23.9912 10.8641 22.3213 12.6775 21.4863L13.8347 21.0147Z" fill="white"/>
<path d="M47.9201 26.9179C47.7209 25.8252 47.0016 24.8964 45.9909 24.4306L41.6388 22.6538C40.9123 22.3213 40.4493 21.5947 40.4493 20.7963V20.1562C40.4493 19.8515 40.4977 19.5512 40.5973 19.2656C40.5973 19.2656 43.3351 15.6123 43.3351 12.2461C43.3351 8.03905 40.6442 5.33203 37.3204 5.33203C35.7165 5.33203 34.2619 5.97075 33.1822 7.10156C33.235 7.57621 33.2716 8.05808 33.2716 8.55758C33.2716 10.7065 32.5231 12.876 31.6984 14.6191C32.4513 17.1284 34.0494 19.2656 34.0494 19.2656C34.1461 19.5512 34.1974 19.8515 34.1974 20.1562V20.7963C34.1974 20.871 34.1724 20.9399 34.1651 21.0146L35.2432 21.4541C37.1329 22.3184 38.4307 23.9882 38.7911 25.9526L38.8087 26.0551L39.0988 29.8022H46.2105C46.71 29.8022 47.1861 29.5957 47.523 29.228C47.8629 28.8632 48.0329 28.3725 47.9947 27.8744L47.9201 26.9179Z" fill="white"/>
<path d="M34.0824 23.1122L28.8178 20.9604C27.9389 20.556 27.3779 19.6771 27.3779 18.7133V17.9369C27.3779 17.5708 27.4365 17.206 27.558 16.8588C27.558 16.8588 30.8686 12.4409 30.8686 8.36566C30.8686 3.27383 27.6123 0 23.5942 0C19.5776 0 16.3198 3.27393 16.3198 8.36566C16.3198 12.4409 19.6333 16.8588 19.6333 16.8588C19.752 17.206 19.8135 17.5708 19.8135 17.9369V18.7133C19.8135 19.6771 19.2481 20.556 18.3706 20.9604L13.106 23.1122C11.8828 23.6732 11.0112 24.7982 10.771 26.1224L10.5 29.6102H23.5942H36.6884L36.4204 26.1224C36.1771 24.7983 35.3055 23.6733 34.0824 23.1122Z" fill="white"/>
</svg>
