<svg width="120" height="120" viewBox="0 0 120 120" fill="none" xmlns="http://www.w3.org/2000/svg">
<circle cx="60" cy="60" r="60" fill="url(#paint0_linear_1143_1879)"/>
<path d="M49.8947 50.0554L55.5789 44.3713L51.7895 40.582L32.8422 59.5289L58.7358 85.422L58.7365 85.4227C59.7815 86.4675 61.4816 86.4675 62.5263 85.4229C63.0325 84.9166 63.3114 84.2437 63.3114 83.5281C63.3114 82.8132 63.0329 82.1407 62.5275 81.6348C62.5272 81.6343 62.5266 81.6341 62.5263 81.6337C62.5263 81.6337 62.5259 81.6332 62.5255 81.6329L58.7367 77.8443C57.6902 76.7978 57.6902 75.1014 58.7365 74.055C59.7828 73.0087 61.4794 73.0085 62.5261 74.055L66.3157 77.8443C66.316 77.8446 66.3164 77.8452 66.3169 77.8457C67.362 78.8889 69.0608 78.8885 70.1051 77.8444C71.1498 76.7996 71.15 75.0998 70.1051 74.0551C70.1044 74.0543 70.1037 74.0534 70.1026 74.0525L66.3157 70.2657C65.2694 69.2192 65.2694 67.5228 66.3157 66.4764C67.362 65.4301 69.0587 65.43 70.1051 66.4762L73.8938 70.2646C73.8947 70.2655 73.8954 70.2664 73.8963 70.2673C74.9412 71.3098 76.6389 71.3096 77.6832 70.2664C77.6836 70.266 77.684 70.2658 77.6841 70.2655L77.6859 70.2637C78.1908 69.7576 78.4691 69.0856 78.4691 68.3708C78.4692 67.656 78.1913 66.9844 77.6865 66.4787L76.421 65.2131C76.4206 65.2127 76.4203 65.2124 76.4199 65.2118L66.9475 55.7398L61.2633 61.4238L61.2631 61.424C59.6961 62.9907 57.6377 63.7744 55.5792 63.7744C53.5206 63.7744 51.4622 62.9907 49.895 61.4236C46.7616 58.2901 46.7612 53.1918 49.8936 50.0573C49.8936 50.0566 49.8941 50.0559 49.8947 50.0554Z" fill="white"/>
<path d="M47.2024 37.5872L48.0002 36.7895L44.2104 33L24 53.2099L27.7894 56.9992L47.2024 37.5872Z" fill="white"/>
<path d="M61.2648 46.2641C61.2641 46.2648 61.2636 46.2655 61.2629 46.2662C61.2622 46.267 61.2614 46.2675 61.2607 46.268L53.6842 53.8447C53.6838 53.8448 53.6837 53.845 53.6837 53.845C52.6392 54.89 52.6394 56.5897 53.6838 57.6341C54.7289 58.6788 56.4288 58.679 57.4736 57.634L65.0525 50.0554C65.555 49.5529 66.2367 49.2705 66.9471 49.2705C67.6579 49.2705 68.3394 49.5529 68.8417 50.0554L80.2096 61.4229L80.21 61.4231L81.4728 62.6858C81.4728 62.6858 81.473 62.686 81.4733 62.6862C81.4733 62.6862 81.4737 62.6867 81.474 62.6871L83.3679 64.5809L87.1574 60.7916L66.9471 40.582L61.2648 46.2641Z" fill="white"/>
<path d="M70.737 36.7928L92.2106 58.2656L96 54.4763L74.5265 33.0035L70.737 36.7928Z" fill="white"/>
<defs>
<linearGradient id="paint0_linear_1143_1879" x1="52.047" y1="2.43958" x2="52.047" y2="148.755" gradientUnits="userSpaceOnUse">
<stop stop-color="#F78422"/>
<stop offset="0.961538" stop-color="#E1291C"/>
</linearGradient>
</defs>
</svg>
