<svg width="48" height="54" viewBox="0 0 48 54" fill="none" xmlns="http://www.w3.org/2000/svg">
<path d="M43.2234 42.1497L33.5741 38.2254C31.9632 37.488 30.9349 35.8851 30.9349 34.1274V32.7115C30.9349 32.0437 31.0423 31.3785 31.2652 30.7454C31.2652 30.7454 37.3331 22.6884 37.3331 15.2564C37.3331 5.97048 31.3647 0 24 0C16.6381 0 10.6669 5.97065 10.6669 15.2564C10.6669 22.6884 16.7401 30.7454 16.7401 30.7454C16.9577 31.3785 17.0704 32.0437 17.0704 32.7115V34.1274C17.0704 35.8851 16.0341 37.488 14.4257 38.2254L4.77639 42.1497C2.53451 43.1727 0.936995 45.2244 0.496764 47.6394L0 54H24H48L47.5087 47.6394C47.0628 45.2246 45.4653 43.1729 43.2234 42.1497Z" fill="white"/>
</svg>
