<svg width="64" height="64" viewBox="0 0 64 64" fill="none" xmlns="http://www.w3.org/2000/svg">
<path d="M30.5385 36.5632C28.566 39.6435 27.4224 43.3054 27.4224 47.2344C27.4224 52.204 29.2519 56.7466 32.2744 60.2247C29.8493 60.7127 27.213 60.9551 24.3742 60.9551C13.9467 60.9551 6.25639 57.6867 1.55568 51.0893C0.543818 49.6691 0 47.9687 0 46.2248V43.4204C0 39.6344 3.06905 36.5651 6.85489 36.5651L30.5385 36.5632ZM47.2353 30.4688C56.4943 30.4688 64 37.9749 64 47.2344C64 56.4939 56.4943 64 47.2353 64C37.9765 64 30.4705 56.4939 30.4705 47.2344C30.4705 37.9749 37.9765 30.4688 47.2353 30.4688ZM47.2353 54.0961C46.184 54.0961 45.3317 54.9484 45.3317 55.9998C45.3317 57.0511 46.184 57.9034 47.2353 57.9034C48.2866 57.9034 49.1388 57.0511 49.1388 55.9998C49.1388 54.9484 48.2866 54.0961 47.2353 54.0961ZM47.2356 36.1816C44.0411 36.1816 41.5529 38.6733 41.5861 42.1389C41.5941 42.9805 42.2829 43.6563 43.1248 43.6484C43.9664 43.6402 44.6422 42.9512 44.634 42.1096C44.6172 40.3446 45.7304 39.2299 47.2356 39.2299C48.6752 39.2299 49.8368 40.4245 49.8368 42.1242C49.8368 42.7101 49.6683 43.1677 49.1541 43.8358L48.8675 44.1891L48.5658 44.5342L47.7568 45.4185L47.341 45.8977C46.1727 47.2899 45.7115 48.3135 45.7115 49.8913C45.7115 50.7329 46.3937 51.4154 47.2356 51.4154C48.0772 51.4154 48.7596 50.7329 48.7596 49.8913C48.7596 49.2719 48.9379 48.7969 49.4875 48.0919L49.7463 47.7745L50.0542 47.4228L50.8641 46.5372L51.2743 46.0645C52.4274 44.6903 52.885 43.677 52.885 42.1242C52.885 38.7598 50.3782 36.1816 47.2356 36.1816ZM24.3742 0C32.7914 0 39.6149 6.82382 39.6149 15.2415C39.6149 23.6591 32.7914 30.4828 24.3742 30.4828C15.9571 30.4828 9.13362 23.6591 9.13362 15.2415C9.13362 6.82382 15.9571 0 24.3742 0Z" fill="url(#paint0_linear_1201_1182)"/>
<defs>
<linearGradient id="paint0_linear_1201_1182" x1="27.7584" y1="1.30111" x2="27.7584" y2="79.3362" gradientUnits="userSpaceOnUse">
<stop stop-color="#F78422"/>
<stop offset="0.961538" stop-color="#E1291C"/>
</linearGradient>
</defs>
</svg>
