<svg width="13" height="13" viewBox="0 0 13 13" fill="none" xmlns="http://www.w3.org/2000/svg">
<path d="M5.22794 7.46302L11.762 0.931368M5.41368 7.75675L6.89528 10.72C7.25334 11.4361 7.43234 11.7942 7.65788 11.8902C7.85361 11.9735 8.07734 11.9584 8.26014 11.8496C8.47074 11.7242 8.60008 11.3453 8.85881 10.5876L11.6582 2.38931C11.8837 1.72915 11.9963 1.39906 11.9192 1.1807C11.8521 0.990741 11.7027 0.841315 11.5127 0.774201C11.2943 0.697055 10.9643 0.809768 10.3041 1.03519L2.10576 3.83462C1.3481 4.09333 0.969271 4.22269 0.843865 4.4333C0.735031 4.61607 0.719951 4.8398 0.803271 5.03549C0.899285 5.26102 1.25733 5.44009 1.97342 5.79809L4.93666 7.27975C5.05468 7.33875 5.11368 7.36822 5.16474 7.40762C5.21014 7.44262 5.25081 7.48329 5.28574 7.52862C5.32521 7.57975 5.35468 7.63875 5.41368 7.75675Z" stroke="white" stroke-width="1.5" stroke-linecap="round" stroke-linejoin="round"/>
</svg>
