<svg width="88" height="88" viewBox="0 0 88 88" fill="none" xmlns="http://www.w3.org/2000/svg">
<path d="M55 33H55.0367M55 55C67.1502 55 77 45.1502 77 33C77 20.8497 67.1502 11 55 11C42.8498 11 33 20.8497 33 33C33 34.0035 33.0672 34.9913 33.1973 35.9591C33.4113 37.5511 33.5183 38.3471 33.4463 38.8505C33.3713 39.3752 33.2757 39.6576 33.0172 40.1203C32.769 40.5643 32.3316 41.0018 31.4568 41.8766L12.7183 60.6151C12.0842 61.2491 11.7671 61.5663 11.5403 61.9362C11.3393 62.2644 11.1911 62.6219 11.1013 62.9963C11 63.4183 11 63.8667 11 64.7632V71.1333C11 73.187 11 74.2137 11.3996 74.998C11.7512 75.6881 12.3121 76.2487 13.002 76.6003C13.7864 77 14.8131 77 16.8667 77H23.2366C24.1334 77 24.5818 77 25.0038 76.8988C25.378 76.809 25.7356 76.6608 26.0637 76.4595C26.4337 76.2329 26.7508 75.9158 27.385 75.2818L46.1234 56.5433C46.9982 55.6684 47.4357 55.231 47.8797 54.9828C48.3424 54.7243 48.6248 54.6286 49.1495 54.5538C49.6529 54.4815 50.4489 54.5886 52.041 54.8027C53.0086 54.9329 53.9964 55 55 55Z" stroke="url(#paint0_linear_1503_822)" stroke-width="8" stroke-linecap="round" stroke-linejoin="round"/>
<defs>
<linearGradient id="paint0_linear_1503_822" x1="39.6259" y1="12.3418" x2="39.6259" y2="92.8155" gradientUnits="userSpaceOnUse">
<stop stop-color="#F78422"/>
<stop offset="0.961538" stop-color="#E1291C"/>
</linearGradient>
</defs>
</svg>
